<svg width="1369" height="104" viewBox="0 0 1369 104" fill="none" xmlns="http://www.w3.org/2000/svg">
<rect width="1368" height="104" transform="translate(0.539062)" fill="#00111A"/>
<path d="M169.152 59H165.754V45.1953C165.754 44.2344 165.941 43.4258 166.316 42.7695C166.699 42.1055 167.234 41.6055 167.922 41.2695C168.617 40.9258 169.441 40.7539 170.395 40.7539C170.707 40.7539 171.008 40.7773 171.297 40.8242C171.586 40.8633 171.867 40.9141 172.141 40.9766L172.105 43.5195C171.957 43.4805 171.801 43.4531 171.637 43.4375C171.473 43.4219 171.281 43.4141 171.062 43.4141C170.656 43.4141 170.309 43.4844 170.02 43.625C169.738 43.7578 169.523 43.957 169.375 44.2227C169.227 44.4883 169.152 44.8125 169.152 45.1953V59ZM171.684 46.3203V48.7109H163.867V46.3203H171.684ZM172.914 52.7891V52.543C172.914 51.6133 173.047 50.7578 173.312 49.9766C173.578 49.1875 173.965 48.5039 174.473 47.9258C174.98 47.3477 175.605 46.8984 176.348 46.5781C177.09 46.25 177.941 46.0859 178.902 46.0859C179.863 46.0859 180.719 46.25 181.469 46.5781C182.219 46.8984 182.848 47.3477 183.355 47.9258C183.871 48.5039 184.262 49.1875 184.527 49.9766C184.793 50.7578 184.926 51.6133 184.926 52.543V52.7891C184.926 53.7109 184.793 54.5664 184.527 55.3555C184.262 56.1367 183.871 56.8203 183.355 57.4062C182.848 57.9844 182.223 58.4336 181.48 58.7539C180.738 59.0742 179.887 59.2344 178.926 59.2344C177.965 59.2344 177.109 59.0742 176.359 58.7539C175.617 58.4336 174.988 57.9844 174.473 57.4062C173.965 56.8203 173.578 56.1367 173.312 55.3555C173.047 54.5664 172.914 53.7109 172.914 52.7891ZM176.289 52.543V52.7891C176.289 53.3203 176.336 53.8164 176.43 54.2773C176.523 54.7383 176.672 55.1445 176.875 55.4961C177.086 55.8398 177.359 56.1094 177.695 56.3047C178.031 56.5 178.441 56.5977 178.926 56.5977C179.395 56.5977 179.797 56.5 180.133 56.3047C180.469 56.1094 180.738 55.8398 180.941 55.4961C181.145 55.1445 181.293 54.7383 181.387 54.2773C181.488 53.8164 181.539 53.3203 181.539 52.7891V52.543C181.539 52.0273 181.488 51.543 181.387 51.0898C181.293 50.6289 181.141 50.2227 180.93 49.8711C180.727 49.5117 180.457 49.2305 180.121 49.0273C179.785 48.8242 179.379 48.7227 178.902 48.7227C178.426 48.7227 178.02 48.8242 177.684 49.0273C177.355 49.2305 177.086 49.5117 176.875 49.8711C176.672 50.2227 176.523 50.6289 176.43 51.0898C176.336 51.543 176.289 52.0273 176.289 52.543ZM186.461 52.7891V52.543C186.461 51.6133 186.594 50.7578 186.859 49.9766C187.125 49.1875 187.512 48.5039 188.02 47.9258C188.527 47.3477 189.152 46.8984 189.895 46.5781C190.637 46.25 191.488 46.0859 192.449 46.0859C193.41 46.0859 194.266 46.25 195.016 46.5781C195.766 46.8984 196.395 47.3477 196.902 47.9258C197.418 48.5039 197.809 49.1875 198.074 49.9766C198.34 50.7578 198.473 51.6133 198.473 52.543V52.7891C198.473 53.7109 198.34 54.5664 198.074 55.3555C197.809 56.1367 197.418 56.8203 196.902 57.4062C196.395 57.9844 195.77 58.4336 195.027 58.7539C194.285 59.0742 193.434 59.2344 192.473 59.2344C191.512 59.2344 190.656 59.0742 189.906 58.7539C189.164 58.4336 188.535 57.9844 188.02 57.4062C187.512 56.8203 187.125 56.1367 186.859 55.3555C186.594 54.5664 186.461 53.7109 186.461 52.7891ZM189.836 52.543V52.7891C189.836 53.3203 189.883 53.8164 189.977 54.2773C190.07 54.7383 190.219 55.1445 190.422 55.4961C190.633 55.8398 190.906 56.1094 191.242 56.3047C191.578 56.5 191.988 56.5977 192.473 56.5977C192.941 56.5977 193.344 56.5 193.68 56.3047C194.016 56.1094 194.285 55.8398 194.488 55.4961C194.691 55.1445 194.84 54.7383 194.934 54.2773C195.035 53.8164 195.086 53.3203 195.086 52.7891V52.543C195.086 52.0273 195.035 51.543 194.934 51.0898C194.84 50.6289 194.688 50.2227 194.477 49.8711C194.273 49.5117 194.004 49.2305 193.668 49.0273C193.332 48.8242 192.926 48.7227 192.449 48.7227C191.973 48.7227 191.566 48.8242 191.23 49.0273C190.902 49.2305 190.633 49.5117 190.422 49.8711C190.219 50.2227 190.07 50.6289 189.977 51.0898C189.883 51.543 189.836 52.0273 189.836 52.543ZM208.035 56.2344V41H211.434V59H208.375L208.035 56.2344ZM200.02 52.8125V52.5664C200.02 51.5977 200.129 50.7188 200.348 49.9297C200.566 49.1328 200.887 48.4492 201.309 47.8789C201.73 47.3086 202.25 46.8672 202.867 46.5547C203.484 46.2422 204.188 46.0859 204.977 46.0859C205.719 46.0859 206.367 46.2422 206.922 46.5547C207.484 46.8672 207.961 47.3125 208.352 47.8906C208.75 48.4609 209.07 49.1367 209.312 49.918C209.555 50.6914 209.73 51.5391 209.84 52.4609V53C209.73 53.8828 209.555 54.7031 209.312 55.4609C209.07 56.2188 208.75 56.8828 208.352 57.4531C207.961 58.0156 207.484 58.4531 206.922 58.7656C206.359 59.0781 205.703 59.2344 204.953 59.2344C204.164 59.2344 203.461 59.0742 202.844 58.7539C202.234 58.4336 201.719 57.9844 201.297 57.4062C200.883 56.8281 200.566 56.1484 200.348 55.3672C200.129 54.5859 200.02 53.7344 200.02 52.8125ZM203.395 52.5664V52.8125C203.395 53.3359 203.434 53.8242 203.512 54.2773C203.598 54.7305 203.734 55.1328 203.922 55.4844C204.117 55.8281 204.367 56.0977 204.672 56.293C204.984 56.4805 205.363 56.5742 205.809 56.5742C206.387 56.5742 206.863 56.4453 207.238 56.1875C207.613 55.9219 207.898 55.5586 208.094 55.0977C208.297 54.6367 208.414 54.1055 208.445 53.5039V51.9688C208.422 51.4766 208.352 51.0352 208.234 50.6445C208.125 50.2461 207.961 49.9062 207.742 49.625C207.531 49.3438 207.266 49.125 206.945 48.9688C206.633 48.8125 206.262 48.7344 205.832 48.7344C205.395 48.7344 205.02 48.8359 204.707 49.0391C204.395 49.2344 204.141 49.5039 203.945 49.8477C203.758 50.1914 203.617 50.5977 203.523 51.0664C203.438 51.5273 203.395 52.0273 203.395 52.5664ZM225.883 59.2344C224.898 59.2344 224.016 59.0781 223.234 58.7656C222.453 58.4453 221.789 58.0039 221.242 57.4414C220.703 56.8789 220.289 56.2266 220 55.4844C219.711 54.7344 219.566 53.9375 219.566 53.0938V52.625C219.566 51.6641 219.703 50.7852 219.977 49.9883C220.25 49.1914 220.641 48.5 221.148 47.9141C221.664 47.3281 222.289 46.8789 223.023 46.5664C223.758 46.2461 224.586 46.0859 225.508 46.0859C226.406 46.0859 227.203 46.2344 227.898 46.5312C228.594 46.8281 229.176 47.25 229.645 47.7969C230.121 48.3438 230.48 49 230.723 49.7656C230.965 50.5234 231.086 51.3672 231.086 52.2969V53.7031H221.008V51.4531H227.77V51.1953C227.77 50.7266 227.684 50.3086 227.512 49.9414C227.348 49.5664 227.098 49.2695 226.762 49.0508C226.426 48.832 225.996 48.7227 225.473 48.7227C225.027 48.7227 224.645 48.8203 224.324 49.0156C224.004 49.2109 223.742 49.4844 223.539 49.8359C223.344 50.1875 223.195 50.6016 223.094 51.0781C223 51.5469 222.953 52.0625 222.953 52.625V53.0938C222.953 53.6016 223.023 54.0703 223.164 54.5C223.312 54.9297 223.52 55.3008 223.785 55.6133C224.059 55.9258 224.387 56.168 224.77 56.3398C225.16 56.5117 225.602 56.5977 226.094 56.5977C226.703 56.5977 227.27 56.4805 227.793 56.2461C228.324 56.0039 228.781 55.6406 229.164 55.1562L230.805 56.9375C230.539 57.3203 230.176 57.6875 229.715 58.0391C229.262 58.3906 228.715 58.6797 228.074 58.9062C227.434 59.125 226.703 59.2344 225.883 59.2344ZM235.727 46.3203L237.824 50.1758L239.98 46.3203H243.578L239.992 52.5195L243.742 59H240.133L237.848 54.9219L235.562 59H231.953L235.703 52.5195L232.117 46.3203H235.727ZM248.594 48.7578V63.875H245.219V46.3203H248.348L248.594 48.7578ZM256.621 52.5195V52.7656C256.621 53.6875 256.512 54.543 256.293 55.332C256.082 56.1211 255.77 56.8086 255.355 57.3945C254.941 57.9727 254.426 58.4258 253.809 58.7539C253.199 59.0742 252.496 59.2344 251.699 59.2344C250.926 59.2344 250.254 59.0781 249.684 58.7656C249.113 58.4531 248.633 58.0156 248.242 57.4531C247.859 56.8828 247.551 56.2227 247.316 55.4727C247.082 54.7227 246.902 53.918 246.777 53.0586V52.4141C246.902 51.4922 247.082 50.6484 247.316 49.8828C247.551 49.1094 247.859 48.4414 248.242 47.8789C248.633 47.3086 249.109 46.8672 249.672 46.5547C250.242 46.2422 250.91 46.0859 251.676 46.0859C252.48 46.0859 253.188 46.2383 253.797 46.543C254.414 46.8477 254.93 47.2852 255.344 47.8555C255.766 48.4258 256.082 49.1055 256.293 49.8945C256.512 50.6836 256.621 51.5586 256.621 52.5195ZM253.234 52.7656V52.5195C253.234 51.9805 253.188 51.4844 253.094 51.0312C253.008 50.5703 252.867 50.168 252.672 49.8242C252.484 49.4805 252.234 49.2148 251.922 49.0273C251.617 48.832 251.246 48.7344 250.809 48.7344C250.348 48.7344 249.953 48.8086 249.625 48.957C249.305 49.1055 249.043 49.3203 248.84 49.6016C248.637 49.8828 248.484 50.2188 248.383 50.6094C248.281 51 248.219 51.4414 248.195 51.9336V53.5625C248.234 54.1406 248.344 54.6602 248.523 55.1211C248.703 55.5742 248.98 55.9336 249.355 56.1992C249.73 56.4648 250.223 56.5977 250.832 56.5977C251.277 56.5977 251.652 56.5 251.957 56.3047C252.262 56.1016 252.508 55.8242 252.695 55.4727C252.891 55.1211 253.027 54.7148 253.105 54.2539C253.191 53.793 253.234 53.2969 253.234 52.7656ZM262.281 41V59H258.895V41H262.281ZM264.531 52.7891V52.543C264.531 51.6133 264.664 50.7578 264.93 49.9766C265.195 49.1875 265.582 48.5039 266.09 47.9258C266.598 47.3477 267.223 46.8984 267.965 46.5781C268.707 46.25 269.559 46.0859 270.52 46.0859C271.48 46.0859 272.336 46.25 273.086 46.5781C273.836 46.8984 274.465 47.3477 274.973 47.9258C275.488 48.5039 275.879 49.1875 276.145 49.9766C276.41 50.7578 276.543 51.6133 276.543 52.543V52.7891C276.543 53.7109 276.41 54.5664 276.145 55.3555C275.879 56.1367 275.488 56.8203 274.973 57.4062C274.465 57.9844 273.84 58.4336 273.098 58.7539C272.355 59.0742 271.504 59.2344 270.543 59.2344C269.582 59.2344 268.727 59.0742 267.977 58.7539C267.234 58.4336 266.605 57.9844 266.09 57.4062C265.582 56.8203 265.195 56.1367 264.93 55.3555C264.664 54.5664 264.531 53.7109 264.531 52.7891ZM267.906 52.543V52.7891C267.906 53.3203 267.953 53.8164 268.047 54.2773C268.141 54.7383 268.289 55.1445 268.492 55.4961C268.703 55.8398 268.977 56.1094 269.312 56.3047C269.648 56.5 270.059 56.5977 270.543 56.5977C271.012 56.5977 271.414 56.5 271.75 56.3047C272.086 56.1094 272.355 55.8398 272.559 55.4961C272.762 55.1445 272.91 54.7383 273.004 54.2773C273.105 53.8164 273.156 53.3203 273.156 52.7891V52.543C273.156 52.0273 273.105 51.543 273.004 51.0898C272.91 50.6289 272.758 50.2227 272.547 49.8711C272.344 49.5117 272.074 49.2305 271.738 49.0273C271.402 48.8242 270.996 48.7227 270.52 48.7227C270.043 48.7227 269.637 48.8242 269.301 49.0273C268.973 49.2305 268.703 49.5117 268.492 49.8711C268.289 50.2227 268.141 50.6289 268.047 51.0898C267.953 51.543 267.906 52.0273 267.906 52.543ZM281.992 49.0859V59H278.617V46.3203H281.793L281.992 49.0859ZM285.812 46.2383L285.754 49.3672C285.59 49.3438 285.391 49.3242 285.156 49.3086C284.93 49.2852 284.723 49.2734 284.535 49.2734C284.059 49.2734 283.645 49.3359 283.293 49.4609C282.949 49.5781 282.66 49.7539 282.426 49.9883C282.199 50.2227 282.027 50.5078 281.91 50.8438C281.801 51.1797 281.738 51.5625 281.723 51.9922L281.043 51.7812C281.043 50.9609 281.125 50.207 281.289 49.5195C281.453 48.8242 281.691 48.2188 282.004 47.7031C282.324 47.1875 282.715 46.7891 283.176 46.5078C283.637 46.2266 284.164 46.0859 284.758 46.0859C284.945 46.0859 285.137 46.1016 285.332 46.1328C285.527 46.1562 285.688 46.1914 285.812 46.2383ZM293.008 59.2344C292.023 59.2344 291.141 59.0781 290.359 58.7656C289.578 58.4453 288.914 58.0039 288.367 57.4414C287.828 56.8789 287.414 56.2266 287.125 55.4844C286.836 54.7344 286.691 53.9375 286.691 53.0938V52.625C286.691 51.6641 286.828 50.7852 287.102 49.9883C287.375 49.1914 287.766 48.5 288.273 47.9141C288.789 47.3281 289.414 46.8789 290.148 46.5664C290.883 46.2461 291.711 46.0859 292.633 46.0859C293.531 46.0859 294.328 46.2344 295.023 46.5312C295.719 46.8281 296.301 47.25 296.77 47.7969C297.246 48.3438 297.605 49 297.848 49.7656C298.09 50.5234 298.211 51.3672 298.211 52.2969V53.7031H288.133V51.4531H294.895V51.1953C294.895 50.7266 294.809 50.3086 294.637 49.9414C294.473 49.5664 294.223 49.2695 293.887 49.0508C293.551 48.832 293.121 48.7227 292.598 48.7227C292.152 48.7227 291.77 48.8203 291.449 49.0156C291.129 49.2109 290.867 49.4844 290.664 49.8359C290.469 50.1875 290.32 50.6016 290.219 51.0781C290.125 51.5469 290.078 52.0625 290.078 52.625V53.0938C290.078 53.6016 290.148 54.0703 290.289 54.5C290.438 54.9297 290.645 55.3008 290.91 55.6133C291.184 55.9258 291.512 56.168 291.895 56.3398C292.285 56.5117 292.727 56.5977 293.219 56.5977C293.828 56.5977 294.395 56.4805 294.918 56.2461C295.449 56.0039 295.906 55.6406 296.289 55.1562L297.93 56.9375C297.664 57.3203 297.301 57.6875 296.84 58.0391C296.387 58.3906 295.84 58.6797 295.199 58.9062C294.559 59.125 293.828 59.2344 293.008 59.2344ZM303.508 49.0859V59H300.133V46.3203H303.309L303.508 49.0859ZM307.328 46.2383L307.27 49.3672C307.105 49.3438 306.906 49.3242 306.672 49.3086C306.445 49.2852 306.238 49.2734 306.051 49.2734C305.574 49.2734 305.16 49.3359 304.809 49.4609C304.465 49.5781 304.176 49.7539 303.941 49.9883C303.715 50.2227 303.543 50.5078 303.426 50.8438C303.316 51.1797 303.254 51.5625 303.238 51.9922L302.559 51.7812C302.559 50.9609 302.641 50.207 302.805 49.5195C302.969 48.8242 303.207 48.2188 303.52 47.7031C303.84 47.1875 304.23 46.7891 304.691 46.5078C305.152 46.2266 305.68 46.0859 306.273 46.0859C306.461 46.0859 306.652 46.1016 306.848 46.1328C307.043 46.1562 307.203 46.1914 307.328 46.2383Z" fill="white"/>
<path d="M138.539 37L151.529 44.5V59.5L138.539 67L125.549 59.5V44.5L138.539 37Z" fill="#065E7C"/>
<rect x="352.539" y="28" width="581" height="48" rx="5" fill="#0D1D25"/>
<path fill-rule="evenodd" clip-rule="evenodd" d="M457.895 43.6174C459.229 42.7259 460.798 42.25 462.403 42.25H462.403C464.555 42.2501 466.618 43.105 468.14 44.6266C469.661 46.1481 470.516 48.2117 470.516 50.3635V50.3636C470.516 51.9683 470.04 53.537 469.149 54.8713C468.992 55.1054 468.824 55.3305 468.646 55.5459L473.569 60.4697C473.862 60.7626 473.862 61.2374 473.569 61.5303C473.277 61.8232 472.802 61.8232 472.509 61.5303L467.585 56.6065C466.963 57.1232 466.263 57.5467 465.508 57.8596C464.025 58.4737 462.394 58.6344 460.82 58.3213C459.246 58.0082 457.8 57.2355 456.665 56.1008C455.531 54.9661 454.758 53.5204 454.445 51.9465C454.132 50.3726 454.293 48.7412 454.907 47.2587C455.521 45.7761 456.561 44.5089 457.895 43.6174ZM462.403 43.75C461.095 43.75 459.816 44.1379 458.728 44.8646C457.641 45.5913 456.793 46.6242 456.292 47.8327C455.792 49.0412 455.661 50.3709 455.916 51.6538C456.171 52.9368 456.801 54.1152 457.726 55.0401C458.651 55.965 459.83 56.5949 461.112 56.8501C462.395 57.1053 463.725 56.9743 464.934 56.4738C466.142 55.9732 467.175 55.1255 467.902 54.0379C468.628 52.9503 469.016 51.6717 469.016 50.3636M462.403 43.75C464.157 43.7501 465.839 44.447 467.079 45.6872C468.319 46.9275 469.016 48.6096 469.016 50.3636" fill="#C4C4CC"/>
<path d="M495.414 51.6797H492.531L492.516 50.4688H495.133C495.565 50.4688 495.943 50.3958 496.266 50.25C496.589 50.1042 496.839 49.8958 497.016 49.625C497.198 49.349 497.289 49.0208 497.289 48.6406C497.289 48.224 497.208 47.8854 497.047 47.625C496.891 47.3594 496.648 47.1667 496.32 47.0469C495.997 46.9219 495.586 46.8594 495.086 46.8594H492.867V57H491.359V45.625H495.086C495.669 45.625 496.19 45.6849 496.648 45.8047C497.107 45.9193 497.495 46.1016 497.812 46.3516C498.135 46.5964 498.38 46.9089 498.547 47.2891C498.714 47.6693 498.797 48.125 498.797 48.6562C498.797 49.125 498.677 49.5495 498.438 49.9297C498.198 50.3047 497.865 50.612 497.438 50.8516C497.016 51.0911 496.521 51.2448 495.953 51.3125L495.414 51.6797ZM495.344 57H491.938L492.789 55.7734H495.344C495.823 55.7734 496.229 55.6901 496.562 55.5234C496.901 55.3568 497.159 55.1224 497.336 54.8203C497.513 54.513 497.602 54.151 497.602 53.7344C497.602 53.3125 497.526 52.9479 497.375 52.6406C497.224 52.3333 496.987 52.0964 496.664 51.9297C496.341 51.763 495.924 51.6797 495.414 51.6797H493.266L493.281 50.4688H496.219L496.539 50.9062C497.086 50.9531 497.549 51.1094 497.93 51.375C498.31 51.6354 498.599 51.9688 498.797 52.375C499 52.7812 499.102 53.2292 499.102 53.7188C499.102 54.4271 498.945 55.026 498.633 55.5156C498.326 56 497.891 56.3698 497.328 56.625C496.766 56.875 496.104 57 495.344 57ZM506.281 55.0469V48.5469H507.734V57H506.352L506.281 55.0469ZM506.555 53.2656L507.156 53.25C507.156 53.8125 507.096 54.3333 506.977 54.8125C506.862 55.2865 506.674 55.6979 506.414 56.0469C506.154 56.3958 505.812 56.6693 505.391 56.8672C504.969 57.0599 504.456 57.1562 503.852 57.1562C503.44 57.1562 503.062 57.0964 502.719 56.9766C502.38 56.8568 502.089 56.6719 501.844 56.4219C501.599 56.1719 501.409 55.8464 501.273 55.4453C501.143 55.0443 501.078 54.5625 501.078 54V48.5469H502.523V54.0156C502.523 54.3958 502.565 54.7109 502.648 54.9609C502.737 55.2057 502.854 55.401 503 55.5469C503.151 55.6875 503.318 55.7865 503.5 55.8438C503.688 55.901 503.88 55.9297 504.078 55.9297C504.693 55.9297 505.18 55.8125 505.539 55.5781C505.898 55.3385 506.156 55.0182 506.312 54.6172C506.474 54.2109 506.555 53.7604 506.555 53.2656ZM514.859 54.7578C514.859 54.5495 514.812 54.3568 514.719 54.1797C514.63 53.9974 514.445 53.8333 514.164 53.6875C513.888 53.5365 513.471 53.4062 512.914 53.2969C512.445 53.1979 512.021 53.0807 511.641 52.9453C511.266 52.8099 510.945 52.6458 510.68 52.4531C510.419 52.2604 510.219 52.0339 510.078 51.7734C509.938 51.513 509.867 51.2083 509.867 50.8594C509.867 50.526 509.94 50.2109 510.086 49.9141C510.237 49.6172 510.448 49.3542 510.719 49.125C510.995 48.8958 511.326 48.7161 511.711 48.5859C512.096 48.4557 512.526 48.3906 513 48.3906C513.677 48.3906 514.255 48.5104 514.734 48.75C515.214 48.9896 515.581 49.3099 515.836 49.7109C516.091 50.1068 516.219 50.5469 516.219 51.0312H514.773C514.773 50.7969 514.703 50.5703 514.562 50.3516C514.427 50.1276 514.227 49.9427 513.961 49.7969C513.701 49.651 513.38 49.5781 513 49.5781C512.599 49.5781 512.273 49.6406 512.023 49.7656C511.779 49.8854 511.599 50.0391 511.484 50.2266C511.375 50.4141 511.32 50.612 511.32 50.8203C511.32 50.9766 511.346 51.1172 511.398 51.2422C511.456 51.362 511.555 51.474 511.695 51.5781C511.836 51.6771 512.034 51.7708 512.289 51.8594C512.544 51.9479 512.87 52.0365 513.266 52.125C513.958 52.2812 514.529 52.4688 514.977 52.6875C515.424 52.9062 515.758 53.1745 515.977 53.4922C516.195 53.8099 516.305 54.1953 516.305 54.6484C516.305 55.0182 516.227 55.3568 516.07 55.6641C515.919 55.9714 515.698 56.237 515.406 56.4609C515.12 56.6797 514.776 56.8516 514.375 56.9766C513.979 57.0964 513.534 57.1562 513.039 57.1562C512.294 57.1562 511.664 57.0234 511.148 56.7578C510.633 56.4922 510.242 56.1484 509.977 55.7266C509.711 55.3047 509.578 54.8594 509.578 54.3906H511.031C511.052 54.7865 511.167 55.1016 511.375 55.3359C511.583 55.5651 511.839 55.7292 512.141 55.8281C512.443 55.9219 512.742 55.9688 513.039 55.9688C513.435 55.9688 513.766 55.9167 514.031 55.8125C514.302 55.7083 514.508 55.5651 514.648 55.3828C514.789 55.2005 514.859 54.9922 514.859 54.7578ZM523.523 60.25V50.1719L523.648 48.5469H524.977V60.25H523.523ZM517.844 52.8672V52.7031C517.844 52.0573 517.919 51.4714 518.07 50.9453C518.221 50.4141 518.443 49.9583 518.734 49.5781C519.026 49.1979 519.378 48.9062 519.789 48.7031C520.206 48.4948 520.68 48.3906 521.211 48.3906C521.742 48.3906 522.208 48.4844 522.609 48.6719C523.016 48.8542 523.359 49.1224 523.641 49.4766C523.927 49.8255 524.154 50.2474 524.32 50.7422C524.487 51.237 524.602 51.7969 524.664 52.4219V53.1406C524.607 53.7604 524.495 54.3177 524.328 54.8125C524.161 55.3073 523.935 55.7292 523.648 56.0781C523.367 56.4271 523.021 56.6953 522.609 56.8828C522.203 57.0651 521.732 57.1562 521.195 57.1562C520.674 57.1562 520.206 57.0495 519.789 56.8359C519.378 56.6224 519.026 56.3229 518.734 55.9375C518.448 55.5521 518.227 55.099 518.07 54.5781C517.919 54.0521 517.844 53.4818 517.844 52.8672ZM519.297 52.7031V52.8672C519.297 53.2891 519.341 53.6875 519.43 54.0625C519.518 54.4323 519.654 54.7604 519.836 55.0469C520.023 55.3333 520.258 55.5599 520.539 55.7266C520.826 55.888 521.164 55.9688 521.555 55.9688C522.034 55.9688 522.432 55.8646 522.75 55.6562C523.073 55.4479 523.331 55.1745 523.523 54.8359C523.716 54.4922 523.865 54.125 523.969 53.7344V51.8516C523.911 51.5651 523.82 51.2865 523.695 51.0156C523.576 50.7448 523.419 50.5026 523.227 50.2891C523.034 50.0703 522.799 49.8984 522.523 49.7734C522.253 49.6432 521.935 49.5781 521.57 49.5781C521.174 49.5781 520.833 49.6615 520.547 49.8281C520.26 49.9948 520.023 50.224 519.836 50.5156C519.654 50.8021 519.518 51.1328 519.43 51.5078C519.341 51.8828 519.297 52.2812 519.297 52.7031ZM532.469 55.0469V48.5469H533.922V57H532.539L532.469 55.0469ZM532.742 53.2656L533.344 53.25C533.344 53.8125 533.284 54.3333 533.164 54.8125C533.049 55.2865 532.862 55.6979 532.602 56.0469C532.341 56.3958 532 56.6693 531.578 56.8672C531.156 57.0599 530.643 57.1562 530.039 57.1562C529.628 57.1562 529.25 57.0964 528.906 56.9766C528.568 56.8568 528.276 56.6719 528.031 56.4219C527.786 56.1719 527.596 55.8464 527.461 55.4453C527.331 55.0443 527.266 54.5625 527.266 54V48.5469H528.711V54.0156C528.711 54.3958 528.753 54.7109 528.836 54.9609C528.924 55.2057 529.042 55.401 529.188 55.5469C529.339 55.6875 529.505 55.7865 529.688 55.8438C529.875 55.901 530.068 55.9297 530.266 55.9297C530.88 55.9297 531.367 55.8125 531.727 55.5781C532.086 55.3385 532.344 55.0182 532.5 54.6172C532.661 54.2109 532.742 53.7604 532.742 53.2656ZM539.633 57.1562C539.044 57.1562 538.51 57.0573 538.031 56.8594C537.557 56.6562 537.148 56.3724 536.805 56.0078C536.466 55.6432 536.206 55.2109 536.023 54.7109C535.841 54.2109 535.75 53.6641 535.75 53.0703V52.7422C535.75 52.0547 535.852 51.4427 536.055 50.9062C536.258 50.3646 536.534 49.9062 536.883 49.5312C537.232 49.1562 537.628 48.8724 538.07 48.6797C538.513 48.487 538.971 48.3906 539.445 48.3906C540.049 48.3906 540.57 48.4948 541.008 48.7031C541.451 48.9115 541.812 49.2031 542.094 49.5781C542.375 49.9479 542.583 50.3854 542.719 50.8906C542.854 51.3906 542.922 51.9375 542.922 52.5312V53.1797H536.609V52H541.477V51.8906C541.456 51.5156 541.378 51.151 541.242 50.7969C541.112 50.4427 540.904 50.151 540.617 49.9219C540.331 49.6927 539.94 49.5781 539.445 49.5781C539.117 49.5781 538.815 49.6484 538.539 49.7891C538.263 49.9245 538.026 50.1276 537.828 50.3984C537.63 50.6693 537.477 51 537.367 51.3906C537.258 51.7812 537.203 52.2318 537.203 52.7422V53.0703C537.203 53.4714 537.258 53.849 537.367 54.2031C537.482 54.5521 537.646 54.8594 537.859 55.125C538.078 55.3906 538.341 55.599 538.648 55.75C538.961 55.901 539.315 55.9766 539.711 55.9766C540.221 55.9766 540.654 55.8724 541.008 55.6641C541.362 55.4557 541.672 55.1771 541.938 54.8281L542.812 55.5234C542.63 55.7995 542.398 56.0625 542.117 56.3125C541.836 56.5625 541.49 56.7656 541.078 56.9219C540.672 57.0781 540.19 57.1562 539.633 57.1562ZM550.023 50.1719V60.25H548.57V48.5469H549.898L550.023 50.1719ZM555.719 52.7031V52.8672C555.719 53.4818 555.646 54.0521 555.5 54.5781C555.354 55.099 555.141 55.5521 554.859 55.9375C554.583 56.3229 554.242 56.6224 553.836 56.8359C553.43 57.0495 552.964 57.1562 552.438 57.1562C551.901 57.1562 551.427 57.0677 551.016 56.8906C550.604 56.7135 550.255 56.4557 549.969 56.1172C549.682 55.7786 549.453 55.3724 549.281 54.8984C549.115 54.4245 549 53.8906 548.938 53.2969V52.4219C549 51.7969 549.117 51.237 549.289 50.7422C549.461 50.2474 549.688 49.8255 549.969 49.4766C550.255 49.1224 550.602 48.8542 551.008 48.6719C551.414 48.4844 551.883 48.3906 552.414 48.3906C552.945 48.3906 553.417 48.4948 553.828 48.7031C554.24 48.9062 554.586 49.1979 554.867 49.5781C555.148 49.9583 555.359 50.4141 555.5 50.9453C555.646 51.4714 555.719 52.0573 555.719 52.7031ZM554.266 52.8672V52.7031C554.266 52.2812 554.221 51.8854 554.133 51.5156C554.044 51.1406 553.906 50.8125 553.719 50.5312C553.536 50.2448 553.302 50.0208 553.016 49.8594C552.729 49.6927 552.388 49.6094 551.992 49.6094C551.628 49.6094 551.31 49.6719 551.039 49.7969C550.773 49.9219 550.547 50.0911 550.359 50.3047C550.172 50.513 550.018 50.7526 549.898 51.0234C549.784 51.2891 549.698 51.5651 549.641 51.8516V53.875C549.745 54.2396 549.891 54.5833 550.078 54.9062C550.266 55.224 550.516 55.4818 550.828 55.6797C551.141 55.8724 551.534 55.9688 552.008 55.9688C552.398 55.9688 552.734 55.888 553.016 55.7266C553.302 55.5599 553.536 55.3333 553.719 55.0469C553.906 54.7604 554.044 54.4323 554.133 54.0625C554.221 53.6875 554.266 53.2891 554.266 52.8672ZM557.18 52.8672V52.6875C557.18 52.0781 557.268 51.513 557.445 50.9922C557.622 50.4661 557.878 50.0104 558.211 49.625C558.544 49.2344 558.948 48.9323 559.422 48.7188C559.896 48.5 560.427 48.3906 561.016 48.3906C561.609 48.3906 562.143 48.5 562.617 48.7188C563.096 48.9323 563.503 49.2344 563.836 49.625C564.174 50.0104 564.432 50.4661 564.609 50.9922C564.786 51.513 564.875 52.0781 564.875 52.6875V52.8672C564.875 53.4766 564.786 54.0417 564.609 54.5625C564.432 55.0833 564.174 55.5391 563.836 55.9297C563.503 56.3151 563.099 56.6172 562.625 56.8359C562.156 57.0495 561.625 57.1562 561.031 57.1562C560.438 57.1562 559.904 57.0495 559.43 56.8359C558.956 56.6172 558.549 56.3151 558.211 55.9297C557.878 55.5391 557.622 55.0833 557.445 54.5625C557.268 54.0417 557.18 53.4766 557.18 52.8672ZM558.625 52.6875V52.8672C558.625 53.2891 558.674 53.6875 558.773 54.0625C558.872 54.4323 559.021 54.7604 559.219 55.0469C559.422 55.3333 559.674 55.5599 559.977 55.7266C560.279 55.888 560.63 55.9688 561.031 55.9688C561.427 55.9688 561.773 55.888 562.07 55.7266C562.372 55.5599 562.622 55.3333 562.82 55.0469C563.018 54.7604 563.167 54.4323 563.266 54.0625C563.37 53.6875 563.422 53.2891 563.422 52.8672V52.6875C563.422 52.2708 563.37 51.8776 563.266 51.5078C563.167 51.1328 563.016 50.8021 562.812 50.5156C562.615 50.224 562.365 49.9948 562.062 49.8281C561.766 49.6615 561.417 49.5781 561.016 49.5781C560.62 49.5781 560.271 49.6615 559.969 49.8281C559.672 49.9948 559.422 50.224 559.219 50.5156C559.021 50.8021 558.872 51.1328 558.773 51.5078C558.674 51.8776 558.625 52.2708 558.625 52.6875ZM568.133 49.875V57H566.688V48.5469H568.094L568.133 49.875ZM570.773 48.5L570.766 49.8438C570.646 49.8177 570.531 49.8021 570.422 49.7969C570.318 49.7865 570.198 49.7812 570.062 49.7812C569.729 49.7812 569.435 49.8333 569.18 49.9375C568.924 50.0417 568.708 50.1875 568.531 50.375C568.354 50.5625 568.214 50.7865 568.109 51.0469C568.01 51.3021 567.945 51.5833 567.914 51.8906L567.508 52.125C567.508 51.6146 567.557 51.1354 567.656 50.6875C567.76 50.2396 567.919 49.8438 568.133 49.5C568.346 49.151 568.617 48.8802 568.945 48.6875C569.279 48.4896 569.674 48.3906 570.133 48.3906C570.237 48.3906 570.357 48.4036 570.492 48.4297C570.628 48.4505 570.721 48.474 570.773 48.5ZM577.523 50.1719V60.25H576.07V48.5469H577.398L577.523 50.1719ZM583.219 52.7031V52.8672C583.219 53.4818 583.146 54.0521 583 54.5781C582.854 55.099 582.641 55.5521 582.359 55.9375C582.083 56.3229 581.742 56.6224 581.336 56.8359C580.93 57.0495 580.464 57.1562 579.938 57.1562C579.401 57.1562 578.927 57.0677 578.516 56.8906C578.104 56.7135 577.755 56.4557 577.469 56.1172C577.182 55.7786 576.953 55.3724 576.781 54.8984C576.615 54.4245 576.5 53.8906 576.438 53.2969V52.4219C576.5 51.7969 576.617 51.237 576.789 50.7422C576.961 50.2474 577.188 49.8255 577.469 49.4766C577.755 49.1224 578.102 48.8542 578.508 48.6719C578.914 48.4844 579.383 48.3906 579.914 48.3906C580.445 48.3906 580.917 48.4948 581.328 48.7031C581.74 48.9062 582.086 49.1979 582.367 49.5781C582.648 49.9583 582.859 50.4141 583 50.9453C583.146 51.4714 583.219 52.0573 583.219 52.7031ZM581.766 52.8672V52.7031C581.766 52.2812 581.721 51.8854 581.633 51.5156C581.544 51.1406 581.406 50.8125 581.219 50.5312C581.036 50.2448 580.802 50.0208 580.516 49.8594C580.229 49.6927 579.888 49.6094 579.492 49.6094C579.128 49.6094 578.81 49.6719 578.539 49.7969C578.273 49.9219 578.047 50.0911 577.859 50.3047C577.672 50.513 577.518 50.7526 577.398 51.0234C577.284 51.2891 577.198 51.5651 577.141 51.8516V53.875C577.245 54.2396 577.391 54.5833 577.578 54.9062C577.766 55.224 578.016 55.4818 578.328 55.6797C578.641 55.8724 579.034 55.9688 579.508 55.9688C579.898 55.9688 580.234 55.888 580.516 55.7266C580.802 55.5599 581.036 55.3333 581.219 55.0469C581.406 54.7604 581.544 54.4323 581.633 54.0625C581.721 53.6875 581.766 53.2891 581.766 52.8672ZM586.508 49.875V57H585.062V48.5469H586.469L586.508 49.875ZM589.148 48.5L589.141 49.8438C589.021 49.8177 588.906 49.8021 588.797 49.7969C588.693 49.7865 588.573 49.7812 588.438 49.7812C588.104 49.7812 587.81 49.8333 587.555 49.9375C587.299 50.0417 587.083 50.1875 586.906 50.375C586.729 50.5625 586.589 50.7865 586.484 51.0469C586.385 51.3021 586.32 51.5833 586.289 51.8906L585.883 52.125C585.883 51.6146 585.932 51.1354 586.031 50.6875C586.135 50.2396 586.294 49.8438 586.508 49.5C586.721 49.151 586.992 48.8802 587.32 48.6875C587.654 48.4896 588.049 48.3906 588.508 48.3906C588.612 48.3906 588.732 48.4036 588.867 48.4297C589.003 48.4505 589.096 48.474 589.148 48.5ZM595.156 55.5547V51.2031C595.156 50.8698 595.089 50.5807 594.953 50.3359C594.823 50.0859 594.625 49.8932 594.359 49.7578C594.094 49.6224 593.766 49.5547 593.375 49.5547C593.01 49.5547 592.69 49.6172 592.414 49.7422C592.143 49.8672 591.93 50.0312 591.773 50.2344C591.622 50.4375 591.547 50.6562 591.547 50.8906H590.102C590.102 50.5885 590.18 50.2891 590.336 49.9922C590.492 49.6953 590.716 49.4271 591.008 49.1875C591.305 48.9427 591.659 48.75 592.07 48.6094C592.487 48.4635 592.951 48.3906 593.461 48.3906C594.076 48.3906 594.617 48.4948 595.086 48.7031C595.56 48.9115 595.93 49.2266 596.195 49.6484C596.466 50.0651 596.602 50.5885 596.602 51.2188V55.1562C596.602 55.4375 596.625 55.737 596.672 56.0547C596.724 56.3724 596.799 56.6458 596.898 56.875V57H595.391C595.318 56.8333 595.26 56.612 595.219 56.3359C595.177 56.0547 595.156 55.7943 595.156 55.5547ZM595.406 51.875L595.422 52.8906H593.961C593.549 52.8906 593.182 52.9245 592.859 52.9922C592.536 53.0547 592.266 53.151 592.047 53.2812C591.828 53.4115 591.661 53.5755 591.547 53.7734C591.432 53.9661 591.375 54.1927 591.375 54.4531C591.375 54.7188 591.435 54.9609 591.555 55.1797C591.674 55.3984 591.854 55.5729 592.094 55.7031C592.339 55.8281 592.638 55.8906 592.992 55.8906C593.435 55.8906 593.826 55.7969 594.164 55.6094C594.503 55.4219 594.771 55.1927 594.969 54.9219C595.172 54.651 595.281 54.388 595.297 54.1328L595.914 54.8281C595.878 55.0469 595.779 55.2891 595.617 55.5547C595.456 55.8203 595.24 56.0755 594.969 56.3203C594.703 56.5599 594.385 56.7604 594.016 56.9219C593.651 57.0781 593.24 57.1562 592.781 57.1562C592.208 57.1562 591.706 57.0443 591.273 56.8203C590.846 56.5964 590.513 56.2969 590.273 55.9219C590.039 55.5417 589.922 55.1172 589.922 54.6484C589.922 54.1953 590.01 53.7969 590.188 53.4531C590.365 53.1042 590.62 52.8151 590.953 52.5859C591.286 52.3516 591.688 52.1745 592.156 52.0547C592.625 51.9349 593.148 51.875 593.727 51.875H595.406ZM602.414 48.5469V49.6562H597.844V48.5469H602.414ZM599.391 46.4922H600.836V54.9062C600.836 55.1927 600.88 55.4089 600.969 55.5547C601.057 55.7005 601.172 55.7969 601.312 55.8438C601.453 55.8906 601.604 55.9141 601.766 55.9141C601.885 55.9141 602.01 55.9036 602.141 55.8828C602.276 55.8568 602.378 55.8359 602.445 55.8203L602.453 57C602.339 57.0365 602.188 57.0703 602 57.1016C601.818 57.138 601.596 57.1562 601.336 57.1562C600.982 57.1562 600.656 57.0859 600.359 56.9453C600.062 56.8047 599.826 56.5703 599.648 56.2422C599.477 55.9089 599.391 55.4609 599.391 54.8984V46.4922ZM603.57 52.8672V52.6875C603.57 52.0781 603.659 51.513 603.836 50.9922C604.013 50.4661 604.268 50.0104 604.602 49.625C604.935 49.2344 605.339 48.9323 605.812 48.7188C606.286 48.5 606.818 48.3906 607.406 48.3906C608 48.3906 608.534 48.5 609.008 48.7188C609.487 48.9323 609.893 49.2344 610.227 49.625C610.565 50.0104 610.823 50.4661 611 50.9922C611.177 51.513 611.266 52.0781 611.266 52.6875V52.8672C611.266 53.4766 611.177 54.0417 611 54.5625C610.823 55.0833 610.565 55.5391 610.227 55.9297C609.893 56.3151 609.49 56.6172 609.016 56.8359C608.547 57.0495 608.016 57.1562 607.422 57.1562C606.828 57.1562 606.294 57.0495 605.82 56.8359C605.346 56.6172 604.94 56.3151 604.602 55.9297C604.268 55.5391 604.013 55.0833 603.836 54.5625C603.659 54.0417 603.57 53.4766 603.57 52.8672ZM605.016 52.6875V52.8672C605.016 53.2891 605.065 53.6875 605.164 54.0625C605.263 54.4323 605.411 54.7604 605.609 55.0469C605.812 55.3333 606.065 55.5599 606.367 55.7266C606.669 55.888 607.021 55.9688 607.422 55.9688C607.818 55.9688 608.164 55.888 608.461 55.7266C608.763 55.5599 609.013 55.3333 609.211 55.0469C609.409 54.7604 609.557 54.4323 609.656 54.0625C609.76 53.6875 609.812 53.2891 609.812 52.8672V52.6875C609.812 52.2708 609.76 51.8776 609.656 51.5078C609.557 51.1328 609.406 50.8021 609.203 50.5156C609.005 50.224 608.755 49.9948 608.453 49.8281C608.156 49.6615 607.807 49.5781 607.406 49.5781C607.01 49.5781 606.661 49.6615 606.359 49.8281C606.062 49.9948 605.812 50.224 605.609 50.5156C605.411 50.8021 605.263 51.1328 605.164 51.5078C605.065 51.8776 605.016 52.2708 605.016 52.6875ZM618 54.7578C618 54.5495 617.953 54.3568 617.859 54.1797C617.771 53.9974 617.586 53.8333 617.305 53.6875C617.029 53.5365 616.612 53.4062 616.055 53.2969C615.586 53.1979 615.161 53.0807 614.781 52.9453C614.406 52.8099 614.086 52.6458 613.82 52.4531C613.56 52.2604 613.359 52.0339 613.219 51.7734C613.078 51.513 613.008 51.2083 613.008 50.8594C613.008 50.526 613.081 50.2109 613.227 49.9141C613.378 49.6172 613.589 49.3542 613.859 49.125C614.135 48.8958 614.466 48.7161 614.852 48.5859C615.237 48.4557 615.667 48.3906 616.141 48.3906C616.818 48.3906 617.396 48.5104 617.875 48.75C618.354 48.9896 618.721 49.3099 618.977 49.7109C619.232 50.1068 619.359 50.5469 619.359 51.0312H617.914C617.914 50.7969 617.844 50.5703 617.703 50.3516C617.568 50.1276 617.367 49.9427 617.102 49.7969C616.841 49.651 616.521 49.5781 616.141 49.5781C615.74 49.5781 615.414 49.6406 615.164 49.7656C614.919 49.8854 614.74 50.0391 614.625 50.2266C614.516 50.4141 614.461 50.612 614.461 50.8203C614.461 50.9766 614.487 51.1172 614.539 51.2422C614.596 51.362 614.695 51.474 614.836 51.5781C614.977 51.6771 615.174 51.7708 615.43 51.8594C615.685 51.9479 616.01 52.0365 616.406 52.125C617.099 52.2812 617.669 52.4688 618.117 52.6875C618.565 52.9062 618.898 53.1745 619.117 53.4922C619.336 53.8099 619.445 54.1953 619.445 54.6484C619.445 55.0182 619.367 55.3568 619.211 55.6641C619.06 55.9714 618.839 56.237 618.547 56.4609C618.26 56.6797 617.917 56.8516 617.516 56.9766C617.12 57.0964 616.674 57.1562 616.18 57.1562C615.435 57.1562 614.805 57.0234 614.289 56.7578C613.773 56.4922 613.383 56.1484 613.117 55.7266C612.852 55.3047 612.719 54.8594 612.719 54.3906H614.172C614.193 54.7865 614.307 55.1016 614.516 55.3359C614.724 55.5651 614.979 55.7292 615.281 55.8281C615.583 55.9219 615.883 55.9688 616.18 55.9688C616.576 55.9688 616.906 55.9167 617.172 55.8125C617.443 55.7083 617.648 55.5651 617.789 55.3828C617.93 55.2005 618 54.9922 618 54.7578ZM624.93 52.8672V52.6875C624.93 52.0781 625.018 51.513 625.195 50.9922C625.372 50.4661 625.628 50.0104 625.961 49.625C626.294 49.2344 626.698 48.9323 627.172 48.7188C627.646 48.5 628.177 48.3906 628.766 48.3906C629.359 48.3906 629.893 48.5 630.367 48.7188C630.846 48.9323 631.253 49.2344 631.586 49.625C631.924 50.0104 632.182 50.4661 632.359 50.9922C632.536 51.513 632.625 52.0781 632.625 52.6875V52.8672C632.625 53.4766 632.536 54.0417 632.359 54.5625C632.182 55.0833 631.924 55.5391 631.586 55.9297C631.253 56.3151 630.849 56.6172 630.375 56.8359C629.906 57.0495 629.375 57.1562 628.781 57.1562C628.188 57.1562 627.654 57.0495 627.18 56.8359C626.706 56.6172 626.299 56.3151 625.961 55.9297C625.628 55.5391 625.372 55.0833 625.195 54.5625C625.018 54.0417 624.93 53.4766 624.93 52.8672ZM626.375 52.6875V52.8672C626.375 53.2891 626.424 53.6875 626.523 54.0625C626.622 54.4323 626.771 54.7604 626.969 55.0469C627.172 55.3333 627.424 55.5599 627.727 55.7266C628.029 55.888 628.38 55.9688 628.781 55.9688C629.177 55.9688 629.523 55.888 629.82 55.7266C630.122 55.5599 630.372 55.3333 630.57 55.0469C630.768 54.7604 630.917 54.4323 631.016 54.0625C631.12 53.6875 631.172 53.2891 631.172 52.8672V52.6875C631.172 52.2708 631.12 51.8776 631.016 51.5078C630.917 51.1328 630.766 50.8021 630.562 50.5156C630.365 50.224 630.115 49.9948 629.812 49.8281C629.516 49.6615 629.167 49.5781 628.766 49.5781C628.37 49.5781 628.021 49.6615 627.719 49.8281C627.422 49.9948 627.172 50.224 626.969 50.5156C626.771 50.8021 626.622 51.1328 626.523 51.5078C626.424 51.8776 626.375 52.2708 626.375 52.6875ZM639.609 55.0469V48.5469H641.062V57H639.68L639.609 55.0469ZM639.883 53.2656L640.484 53.25C640.484 53.8125 640.424 54.3333 640.305 54.8125C640.19 55.2865 640.003 55.6979 639.742 56.0469C639.482 56.3958 639.141 56.6693 638.719 56.8672C638.297 57.0599 637.784 57.1562 637.18 57.1562C636.768 57.1562 636.391 57.0964 636.047 56.9766C635.708 56.8568 635.417 56.6719 635.172 56.4219C634.927 56.1719 634.737 55.8464 634.602 55.4453C634.471 55.0443 634.406 54.5625 634.406 54V48.5469H635.852V54.0156C635.852 54.3958 635.893 54.7109 635.977 54.9609C636.065 55.2057 636.182 55.401 636.328 55.5469C636.479 55.6875 636.646 55.7865 636.828 55.8438C637.016 55.901 637.208 55.9297 637.406 55.9297C638.021 55.9297 638.508 55.8125 638.867 55.5781C639.227 55.3385 639.484 55.0182 639.641 54.6172C639.802 54.2109 639.883 53.7604 639.883 53.2656ZM648.805 48.5469V57H647.352V48.5469H648.805ZM647.242 46.3047C647.242 46.0703 647.312 45.8724 647.453 45.7109C647.599 45.5495 647.812 45.4688 648.094 45.4688C648.37 45.4688 648.581 45.5495 648.727 45.7109C648.878 45.8724 648.953 46.0703 648.953 46.3047C648.953 46.5286 648.878 46.7214 648.727 46.8828C648.581 47.0391 648.37 47.1172 648.094 47.1172C647.812 47.1172 647.599 47.0391 647.453 46.8828C647.312 46.7214 647.242 46.5286 647.242 46.3047ZM652.57 50.3516V57H651.125V48.5469H652.492L652.57 50.3516ZM652.227 52.4531L651.625 52.4297C651.63 51.8516 651.716 51.3177 651.883 50.8281C652.049 50.3333 652.284 49.9036 652.586 49.5391C652.888 49.1745 653.247 48.8932 653.664 48.6953C654.086 48.4922 654.552 48.3906 655.062 48.3906C655.479 48.3906 655.854 48.4479 656.188 48.5625C656.521 48.6719 656.805 48.849 657.039 49.0938C657.279 49.3385 657.461 49.6562 657.586 50.0469C657.711 50.4323 657.773 50.9036 657.773 51.4609V57H656.32V51.4453C656.32 51.0026 656.255 50.6484 656.125 50.3828C655.995 50.112 655.805 49.9167 655.555 49.7969C655.305 49.6719 654.997 49.6094 654.633 49.6094C654.273 49.6094 653.945 49.6849 653.648 49.8359C653.357 49.987 653.104 50.1953 652.891 50.4609C652.682 50.7266 652.518 51.0312 652.398 51.375C652.284 51.7135 652.227 52.0729 652.227 52.4531ZM665.445 48.5469H666.758V56.8203C666.758 57.5651 666.607 58.2005 666.305 58.7266C666.003 59.2526 665.581 59.651 665.039 59.9219C664.503 60.1979 663.883 60.3359 663.18 60.3359C662.888 60.3359 662.544 60.2891 662.148 60.1953C661.758 60.1068 661.372 59.9531 660.992 59.7344C660.617 59.5208 660.302 59.2318 660.047 58.8672L660.805 58.0078C661.159 58.4349 661.529 58.7318 661.914 58.8984C662.305 59.0651 662.69 59.1484 663.07 59.1484C663.529 59.1484 663.924 59.0625 664.258 58.8906C664.591 58.7188 664.849 58.4635 665.031 58.125C665.219 57.7917 665.312 57.3802 665.312 56.8906V50.4062L665.445 48.5469ZM659.625 52.8672V52.7031C659.625 52.0573 659.701 51.4714 659.852 50.9453C660.008 50.4141 660.229 49.9583 660.516 49.5781C660.807 49.1979 661.159 48.9062 661.57 48.7031C661.982 48.4948 662.445 48.3906 662.961 48.3906C663.492 48.3906 663.956 48.4844 664.352 48.6719C664.753 48.8542 665.091 49.1224 665.367 49.4766C665.648 49.8255 665.87 50.2474 666.031 50.7422C666.193 51.237 666.305 51.7969 666.367 52.4219V53.1406C666.31 53.7604 666.198 54.3177 666.031 54.8125C665.87 55.3073 665.648 55.7292 665.367 56.0781C665.091 56.4271 664.753 56.6953 664.352 56.8828C663.951 57.0651 663.482 57.1562 662.945 57.1562C662.44 57.1562 661.982 57.0495 661.57 56.8359C661.164 56.6224 660.815 56.3229 660.523 55.9375C660.232 55.5521 660.008 55.099 659.852 54.5781C659.701 54.0521 659.625 53.4818 659.625 52.8672ZM661.07 52.7031V52.8672C661.07 53.2891 661.112 53.6849 661.195 54.0547C661.284 54.4245 661.417 54.75 661.594 55.0312C661.776 55.3125 662.008 55.5339 662.289 55.6953C662.57 55.8516 662.906 55.9297 663.297 55.9297C663.776 55.9297 664.172 55.8281 664.484 55.625C664.797 55.4219 665.044 55.1536 665.227 54.8203C665.414 54.487 665.56 54.125 665.664 53.7344V51.8516C665.607 51.5651 665.518 51.2891 665.398 51.0234C665.284 50.7526 665.133 50.513 664.945 50.3047C664.763 50.0911 664.536 49.9219 664.266 49.7969C663.995 49.6719 663.677 49.6094 663.312 49.6094C662.917 49.6094 662.576 49.6927 662.289 49.8594C662.008 50.0208 661.776 50.2448 661.594 50.5312C661.417 50.8125 661.284 51.1406 661.195 51.5156C661.112 51.8854 661.07 52.2812 661.07 52.7031ZM670.398 49.875V57H668.953V48.5469H670.359L670.398 49.875ZM673.039 48.5L673.031 49.8438C672.911 49.8177 672.797 49.8021 672.688 49.7969C672.583 49.7865 672.464 49.7812 672.328 49.7812C671.995 49.7812 671.701 49.8333 671.445 49.9375C671.19 50.0417 670.974 50.1875 670.797 50.375C670.62 50.5625 670.479 50.7865 670.375 51.0469C670.276 51.3021 670.211 51.5833 670.18 51.8906L669.773 52.125C669.773 51.6146 669.823 51.1354 669.922 50.6875C670.026 50.2396 670.185 49.8438 670.398 49.5C670.612 49.151 670.883 48.8802 671.211 48.6875C671.544 48.4896 671.94 48.3906 672.398 48.3906C672.503 48.3906 672.622 48.4036 672.758 48.4297C672.893 48.4505 672.987 48.474 673.039 48.5ZM677.727 57.1562C677.138 57.1562 676.604 57.0573 676.125 56.8594C675.651 56.6562 675.242 56.3724 674.898 56.0078C674.56 55.6432 674.299 55.2109 674.117 54.7109C673.935 54.2109 673.844 53.6641 673.844 53.0703V52.7422C673.844 52.0547 673.945 51.4427 674.148 50.9062C674.352 50.3646 674.628 49.9062 674.977 49.5312C675.326 49.1562 675.721 48.8724 676.164 48.6797C676.607 48.487 677.065 48.3906 677.539 48.3906C678.143 48.3906 678.664 48.4948 679.102 48.7031C679.544 48.9115 679.906 49.2031 680.188 49.5781C680.469 49.9479 680.677 50.3854 680.812 50.8906C680.948 51.3906 681.016 51.9375 681.016 52.5312V53.1797H674.703V52H679.57V51.8906C679.549 51.5156 679.471 51.151 679.336 50.7969C679.206 50.4427 678.997 50.151 678.711 49.9219C678.424 49.6927 678.034 49.5781 677.539 49.5781C677.211 49.5781 676.909 49.6484 676.633 49.7891C676.357 49.9245 676.12 50.1276 675.922 50.3984C675.724 50.6693 675.57 51 675.461 51.3906C675.352 51.7812 675.297 52.2318 675.297 52.7422V53.0703C675.297 53.4714 675.352 53.849 675.461 54.2031C675.576 54.5521 675.74 54.8594 675.953 55.125C676.172 55.3906 676.435 55.599 676.742 55.75C677.055 55.901 677.409 55.9766 677.805 55.9766C678.315 55.9766 678.747 55.8724 679.102 55.6641C679.456 55.4557 679.766 55.1771 680.031 54.8281L680.906 55.5234C680.724 55.7995 680.492 56.0625 680.211 56.3125C679.93 56.5625 679.583 56.7656 679.172 56.9219C678.766 57.0781 678.284 57.1562 677.727 57.1562ZM688.031 55.3594V45H689.484V57H688.156L688.031 55.3594ZM682.344 52.8672V52.7031C682.344 52.0573 682.422 51.4714 682.578 50.9453C682.74 50.4141 682.966 49.9583 683.258 49.5781C683.555 49.1979 683.906 48.9062 684.312 48.7031C684.724 48.4948 685.182 48.3906 685.688 48.3906C686.219 48.3906 686.682 48.4844 687.078 48.6719C687.479 48.8542 687.818 49.1224 688.094 49.4766C688.375 49.8255 688.596 50.2474 688.758 50.7422C688.919 51.237 689.031 51.7969 689.094 52.4219V53.1406C689.036 53.7604 688.924 54.3177 688.758 54.8125C688.596 55.3073 688.375 55.7292 688.094 56.0781C687.818 56.4271 687.479 56.6953 687.078 56.8828C686.677 57.0651 686.208 57.1562 685.672 57.1562C685.177 57.1562 684.724 57.0495 684.312 56.8359C683.906 56.6224 683.555 56.3229 683.258 55.9375C682.966 55.5521 682.74 55.099 682.578 54.5781C682.422 54.0521 682.344 53.4818 682.344 52.8672ZM683.797 52.7031V52.8672C683.797 53.2891 683.839 53.6849 683.922 54.0547C684.01 54.4245 684.146 54.75 684.328 55.0312C684.51 55.3125 684.742 55.5339 685.023 55.6953C685.305 55.8516 685.641 55.9297 686.031 55.9297C686.51 55.9297 686.904 55.8281 687.211 55.625C687.523 55.4219 687.773 55.1536 687.961 54.8203C688.148 54.487 688.294 54.125 688.398 53.7344V51.8516C688.336 51.5651 688.245 51.2891 688.125 51.0234C688.01 50.7526 687.859 50.513 687.672 50.3047C687.49 50.0911 687.263 49.9219 686.992 49.7969C686.727 49.6719 686.411 49.6094 686.047 49.6094C685.651 49.6094 685.31 49.6927 685.023 49.8594C684.742 50.0208 684.51 50.2448 684.328 50.5312C684.146 50.8125 684.01 51.1406 683.922 51.5156C683.839 51.8854 683.797 52.2812 683.797 52.7031ZM693.305 48.5469V57H691.852V48.5469H693.305ZM691.742 46.3047C691.742 46.0703 691.812 45.8724 691.953 45.7109C692.099 45.5495 692.312 45.4688 692.594 45.4688C692.87 45.4688 693.081 45.5495 693.227 45.7109C693.378 45.8724 693.453 46.0703 693.453 46.3047C693.453 46.5286 693.378 46.7214 693.227 46.8828C693.081 47.0391 692.87 47.1172 692.594 47.1172C692.312 47.1172 692.099 47.0391 691.953 46.8828C691.812 46.7214 691.742 46.5286 691.742 46.3047ZM699.133 57.1562C698.544 57.1562 698.01 57.0573 697.531 56.8594C697.057 56.6562 696.648 56.3724 696.305 56.0078C695.966 55.6432 695.706 55.2109 695.523 54.7109C695.341 54.2109 695.25 53.6641 695.25 53.0703V52.7422C695.25 52.0547 695.352 51.4427 695.555 50.9062C695.758 50.3646 696.034 49.9062 696.383 49.5312C696.732 49.1562 697.128 48.8724 697.57 48.6797C698.013 48.487 698.471 48.3906 698.945 48.3906C699.549 48.3906 700.07 48.4948 700.508 48.7031C700.951 48.9115 701.312 49.2031 701.594 49.5781C701.875 49.9479 702.083 50.3854 702.219 50.8906C702.354 51.3906 702.422 51.9375 702.422 52.5312V53.1797H696.109V52H700.977V51.8906C700.956 51.5156 700.878 51.151 700.742 50.7969C700.612 50.4427 700.404 50.151 700.117 49.9219C699.831 49.6927 699.44 49.5781 698.945 49.5781C698.617 49.5781 698.315 49.6484 698.039 49.7891C697.763 49.9245 697.526 50.1276 697.328 50.3984C697.13 50.6693 696.977 51 696.867 51.3906C696.758 51.7812 696.703 52.2318 696.703 52.7422V53.0703C696.703 53.4714 696.758 53.849 696.867 54.2031C696.982 54.5521 697.146 54.8594 697.359 55.125C697.578 55.3906 697.841 55.599 698.148 55.75C698.461 55.901 698.815 55.9766 699.211 55.9766C699.721 55.9766 700.154 55.8724 700.508 55.6641C700.862 55.4557 701.172 55.1771 701.438 54.8281L702.312 55.5234C702.13 55.7995 701.898 56.0625 701.617 56.3125C701.336 56.5625 700.99 56.7656 700.578 56.9219C700.172 57.0781 699.69 57.1562 699.133 57.1562ZM705.555 50.3516V57H704.109V48.5469H705.477L705.555 50.3516ZM705.211 52.4531L704.609 52.4297C704.615 51.8516 704.701 51.3177 704.867 50.8281C705.034 50.3333 705.268 49.9036 705.57 49.5391C705.872 49.1745 706.232 48.8932 706.648 48.6953C707.07 48.4922 707.536 48.3906 708.047 48.3906C708.464 48.3906 708.839 48.4479 709.172 48.5625C709.505 48.6719 709.789 48.849 710.023 49.0938C710.263 49.3385 710.445 49.6562 710.57 50.0469C710.695 50.4323 710.758 50.9036 710.758 51.4609V57H709.305V51.4453C709.305 51.0026 709.24 50.6484 709.109 50.3828C708.979 50.112 708.789 49.9167 708.539 49.7969C708.289 49.6719 707.982 49.6094 707.617 49.6094C707.258 49.6094 706.93 49.6849 706.633 49.8359C706.341 49.987 706.089 50.1953 705.875 50.4609C705.667 50.7266 705.503 51.0312 705.383 51.375C705.268 51.7135 705.211 52.0729 705.211 52.4531ZM716.492 48.5469V49.6562H711.922V48.5469H716.492ZM713.469 46.4922H714.914V54.9062C714.914 55.1927 714.958 55.4089 715.047 55.5547C715.135 55.7005 715.25 55.7969 715.391 55.8438C715.531 55.8906 715.682 55.9141 715.844 55.9141C715.964 55.9141 716.089 55.9036 716.219 55.8828C716.354 55.8568 716.456 55.8359 716.523 55.8203L716.531 57C716.417 57.0365 716.266 57.0703 716.078 57.1016C715.896 57.138 715.674 57.1562 715.414 57.1562C715.06 57.1562 714.734 57.0859 714.438 56.9453C714.141 56.8047 713.904 56.5703 713.727 56.2422C713.555 55.9089 713.469 55.4609 713.469 54.8984V46.4922ZM721.695 57.1562C721.107 57.1562 720.573 57.0573 720.094 56.8594C719.62 56.6562 719.211 56.3724 718.867 56.0078C718.529 55.6432 718.268 55.2109 718.086 54.7109C717.904 54.2109 717.812 53.6641 717.812 53.0703V52.7422C717.812 52.0547 717.914 51.4427 718.117 50.9062C718.32 50.3646 718.596 49.9062 718.945 49.5312C719.294 49.1562 719.69 48.8724 720.133 48.6797C720.576 48.487 721.034 48.3906 721.508 48.3906C722.112 48.3906 722.633 48.4948 723.07 48.7031C723.513 48.9115 723.875 49.2031 724.156 49.5781C724.438 49.9479 724.646 50.3854 724.781 50.8906C724.917 51.3906 724.984 51.9375 724.984 52.5312V53.1797H718.672V52H723.539V51.8906C723.518 51.5156 723.44 51.151 723.305 50.7969C723.174 50.4427 722.966 50.151 722.68 49.9219C722.393 49.6927 722.003 49.5781 721.508 49.5781C721.18 49.5781 720.878 49.6484 720.602 49.7891C720.326 49.9245 720.089 50.1276 719.891 50.3984C719.693 50.6693 719.539 51 719.43 51.3906C719.32 51.7812 719.266 52.2318 719.266 52.7422V53.0703C719.266 53.4714 719.32 53.849 719.43 54.2031C719.544 54.5521 719.708 54.8594 719.922 55.125C720.141 55.3906 720.404 55.599 720.711 55.75C721.023 55.901 721.378 55.9766 721.773 55.9766C722.284 55.9766 722.716 55.8724 723.07 55.6641C723.424 55.4557 723.734 55.1771 724 54.8281L724.875 55.5234C724.693 55.7995 724.461 56.0625 724.18 56.3125C723.898 56.5625 723.552 56.7656 723.141 56.9219C722.734 57.0781 722.253 57.1562 721.695 57.1562ZM731.594 54.7578C731.594 54.5495 731.547 54.3568 731.453 54.1797C731.365 53.9974 731.18 53.8333 730.898 53.6875C730.622 53.5365 730.206 53.4062 729.648 53.2969C729.18 53.1979 728.755 53.0807 728.375 52.9453C728 52.8099 727.68 52.6458 727.414 52.4531C727.154 52.2604 726.953 52.0339 726.812 51.7734C726.672 51.513 726.602 51.2083 726.602 50.8594C726.602 50.526 726.674 50.2109 726.82 49.9141C726.971 49.6172 727.182 49.3542 727.453 49.125C727.729 48.8958 728.06 48.7161 728.445 48.5859C728.831 48.4557 729.26 48.3906 729.734 48.3906C730.411 48.3906 730.99 48.5104 731.469 48.75C731.948 48.9896 732.315 49.3099 732.57 49.7109C732.826 50.1068 732.953 50.5469 732.953 51.0312H731.508C731.508 50.7969 731.438 50.5703 731.297 50.3516C731.161 50.1276 730.961 49.9427 730.695 49.7969C730.435 49.651 730.115 49.5781 729.734 49.5781C729.333 49.5781 729.008 49.6406 728.758 49.7656C728.513 49.8854 728.333 50.0391 728.219 50.2266C728.109 50.4141 728.055 50.612 728.055 50.8203C728.055 50.9766 728.081 51.1172 728.133 51.2422C728.19 51.362 728.289 51.474 728.43 51.5781C728.57 51.6771 728.768 51.7708 729.023 51.8594C729.279 51.9479 729.604 52.0365 730 52.125C730.693 52.2812 731.263 52.4688 731.711 52.6875C732.159 52.9062 732.492 53.1745 732.711 53.4922C732.93 53.8099 733.039 54.1953 733.039 54.6484C733.039 55.0182 732.961 55.3568 732.805 55.6641C732.654 55.9714 732.432 56.237 732.141 56.4609C731.854 56.6797 731.51 56.8516 731.109 56.9766C730.714 57.0964 730.268 57.1562 729.773 57.1562C729.029 57.1562 728.398 57.0234 727.883 56.7578C727.367 56.4922 726.977 56.1484 726.711 55.7266C726.445 55.3047 726.312 54.8594 726.312 54.3906H727.766C727.786 54.7865 727.901 55.1016 728.109 55.3359C728.318 55.5651 728.573 55.7292 728.875 55.8281C729.177 55.9219 729.477 55.9688 729.773 55.9688C730.169 55.9688 730.5 55.9167 730.766 55.8125C731.036 55.7083 731.242 55.5651 731.383 55.3828C731.523 55.2005 731.594 54.9922 731.594 54.7578Z" fill="#7C7C8A"/>
<rect x="965.539" y="24" width="216" height="56" rx="5" fill="#750310"/>
<path fill-rule="evenodd" clip-rule="evenodd" d="M1020.54 50C1020.54 49.4477 1020.99 49 1021.54 49H1034.54C1035.09 49 1035.54 49.4477 1035.54 50C1035.54 50.5523 1035.09 51 1034.54 51H1021.54C1020.99 51 1020.54 50.5523 1020.54 50Z" fill="white"/>
<path fill-rule="evenodd" clip-rule="evenodd" d="M1020.54 54C1020.54 53.4477 1020.99 53 1021.54 53H1034.54C1035.09 53 1035.54 53.4477 1035.54 54C1035.54 54.5523 1035.09 55 1034.54 55H1021.54C1020.99 55 1020.54 54.5523 1020.54 54Z" fill="white"/>
<path fill-rule="evenodd" clip-rule="evenodd" d="M1015.62 42.5858C1016 42.2107 1016.51 42 1017.04 42H1039.04C1039.57 42 1040.08 42.2107 1040.45 42.5858C1040.83 42.9609 1041.04 43.4696 1041.04 44V63C1041.04 63.3466 1040.86 63.6684 1040.56 63.8507C1040.27 64.0329 1039.9 64.0494 1039.59 63.8944L1036.04 62.118L1032.49 63.8944C1032.2 64.0352 1031.87 64.0352 1031.59 63.8944L1028.04 62.118L1024.49 63.8944C1024.2 64.0352 1023.87 64.0352 1023.59 63.8944L1020.04 62.118L1016.49 63.8944C1016.18 64.0494 1015.81 64.0329 1015.51 63.8507C1015.22 63.6684 1015.04 63.3466 1015.04 63V44C1015.04 43.4696 1015.25 42.9609 1015.62 42.5858ZM1039.04 44L1017.04 44L1017.04 61.382L1019.59 60.1056C1019.87 59.9648 1020.2 59.9648 1020.49 60.1056L1024.04 61.882L1027.59 60.1056C1027.87 59.9648 1028.2 59.9648 1028.49 60.1056L1032.04 61.882L1035.59 60.1056C1035.87 59.9648 1036.2 59.9648 1036.49 60.1056L1039.04 61.382V44Z" fill="white"/>
<path d="M1060.18 50.168C1060.18 50.6627 1060.06 51.1293 1059.83 51.568C1059.6 52.0067 1059.22 52.366 1058.71 52.646C1058.2 52.9167 1057.54 53.052 1056.74 53.052H1054.97V57H1053.38V47.27H1056.74C1057.48 47.27 1058.11 47.4007 1058.63 47.662C1059.15 47.914 1059.54 48.2593 1059.79 48.698C1060.05 49.1367 1060.18 49.6267 1060.18 50.168ZM1056.74 51.75C1057.34 51.75 1057.79 51.6147 1058.09 51.344C1058.39 51.064 1058.54 50.672 1058.54 50.168C1058.54 49.104 1057.94 48.572 1056.74 48.572H1054.97V51.75H1056.74ZM1068.77 52.954C1068.77 53.2433 1068.75 53.5047 1068.72 53.738H1062.82C1062.87 54.354 1063.1 54.8487 1063.51 55.222C1063.92 55.5953 1064.42 55.782 1065.02 55.782C1065.88 55.782 1066.48 55.4227 1066.84 54.704H1068.56C1068.33 55.4133 1067.9 55.9967 1067.29 56.454C1066.68 56.902 1065.92 57.126 1065.02 57.126C1064.28 57.126 1063.62 56.9627 1063.03 56.636C1062.45 56.3 1062 55.8333 1061.66 55.236C1061.33 54.6293 1061.17 53.9293 1061.17 53.136C1061.17 52.3427 1061.33 51.6473 1061.65 51.05C1061.97 50.4433 1062.42 49.9767 1063 49.65C1063.59 49.3233 1064.26 49.16 1065.02 49.16C1065.75 49.16 1066.4 49.3187 1066.97 49.636C1067.53 49.9533 1067.98 50.4013 1068.3 50.98C1068.61 51.5493 1068.77 52.2073 1068.77 52.954ZM1067.11 52.45C1067.1 51.862 1066.89 51.3907 1066.48 51.036C1066.06 50.6813 1065.56 50.504 1064.95 50.504C1064.4 50.504 1063.93 50.6813 1063.54 51.036C1063.14 51.3813 1062.91 51.8527 1062.84 52.45H1067.11ZM1069.81 53.108C1069.81 52.3333 1069.97 51.6473 1070.29 51.05C1070.61 50.4527 1071.05 49.9907 1071.6 49.664C1072.16 49.328 1072.78 49.16 1073.46 49.16C1073.97 49.16 1074.46 49.272 1074.95 49.496C1075.44 49.7107 1075.83 50 1076.12 50.364V46.64H1077.73V57H1076.12V55.838C1075.86 56.2113 1075.5 56.5193 1075.03 56.762C1074.57 57.0047 1074.05 57.126 1073.45 57.126C1072.78 57.126 1072.16 56.958 1071.6 56.622C1071.05 56.2767 1070.61 55.8007 1070.29 55.194C1069.97 54.578 1069.81 53.8827 1069.81 53.108ZM1076.12 53.136C1076.12 52.604 1076.01 52.142 1075.79 51.75C1075.57 51.358 1075.29 51.0593 1074.93 50.854C1074.58 50.6487 1074.2 50.546 1073.79 50.546C1073.38 50.546 1072.99 50.6487 1072.64 50.854C1072.28 51.05 1071.99 51.344 1071.77 51.736C1071.56 52.1187 1071.45 52.576 1071.45 53.108C1071.45 53.64 1071.56 54.1067 1071.77 54.508C1071.99 54.9093 1072.28 55.2173 1072.64 55.432C1073 55.6373 1073.38 55.74 1073.79 55.74C1074.2 55.74 1074.58 55.6373 1074.93 55.432C1075.29 55.2267 1075.57 54.928 1075.79 54.536C1076.01 54.1347 1076.12 53.668 1076.12 53.136ZM1080.64 48.264C1080.35 48.264 1080.11 48.166 1079.91 47.97C1079.72 47.774 1079.62 47.5313 1079.62 47.242C1079.62 46.9527 1079.72 46.71 1079.91 46.514C1080.11 46.318 1080.35 46.22 1080.64 46.22C1080.92 46.22 1081.16 46.318 1081.36 46.514C1081.55 46.71 1081.65 46.9527 1081.65 47.242C1081.65 47.5313 1081.55 47.774 1081.36 47.97C1081.16 48.166 1080.92 48.264 1080.64 48.264ZM1081.43 49.286V57H1079.83V49.286H1081.43ZM1082.99 53.108C1082.99 52.3333 1083.15 51.6473 1083.47 51.05C1083.79 50.4527 1084.23 49.9907 1084.78 49.664C1085.34 49.328 1085.96 49.16 1086.64 49.16C1087.15 49.16 1087.64 49.272 1088.13 49.496C1088.62 49.7107 1089.01 50 1089.3 50.364V46.64H1090.91V57H1089.3V55.838C1089.04 56.2113 1088.68 56.5193 1088.21 56.762C1087.75 57.0047 1087.23 57.126 1086.63 57.126C1085.96 57.126 1085.34 56.958 1084.78 56.622C1084.23 56.2767 1083.79 55.8007 1083.47 55.194C1083.15 54.578 1082.99 53.8827 1082.99 53.108ZM1089.3 53.136C1089.3 52.604 1089.19 52.142 1088.97 51.75C1088.75 51.358 1088.47 51.0593 1088.11 50.854C1087.76 50.6487 1087.38 50.546 1086.97 50.546C1086.56 50.546 1086.17 50.6487 1085.82 50.854C1085.46 51.05 1085.17 51.344 1084.95 51.736C1084.74 52.1187 1084.63 52.576 1084.63 53.108C1084.63 53.64 1084.74 54.1067 1084.95 54.508C1085.17 54.9093 1085.46 55.2173 1085.82 55.432C1086.18 55.6373 1086.56 55.74 1086.97 55.74C1087.38 55.74 1087.76 55.6373 1088.11 55.432C1088.47 55.2267 1088.75 54.928 1088.97 54.536C1089.19 54.1347 1089.3 53.668 1089.3 53.136ZM1096.36 57.126C1095.63 57.126 1094.97 56.9627 1094.38 56.636C1093.79 56.3 1093.33 55.8333 1093 55.236C1092.66 54.6293 1092.49 53.9293 1092.49 53.136C1092.49 52.352 1092.66 51.6567 1093.01 51.05C1093.36 50.4433 1093.83 49.9767 1094.42 49.65C1095.02 49.3233 1095.69 49.16 1096.43 49.16C1097.16 49.16 1097.83 49.3233 1098.43 49.65C1099.03 49.9767 1099.5 50.4433 1099.84 51.05C1100.19 51.6567 1100.36 52.352 1100.36 53.136C1100.36 53.92 1100.18 54.6153 1099.83 55.222C1099.47 55.8287 1098.99 56.3 1098.37 56.636C1097.77 56.9627 1097.09 57.126 1096.36 57.126ZM1096.36 55.74C1096.77 55.74 1097.15 55.642 1097.5 55.446C1097.87 55.25 1098.16 54.956 1098.39 54.564C1098.61 54.172 1098.72 53.696 1098.72 53.136C1098.72 52.576 1098.61 52.1047 1098.4 51.722C1098.19 51.33 1097.9 51.036 1097.55 50.84C1097.19 50.644 1096.81 50.546 1096.4 50.546C1095.99 50.546 1095.6 50.644 1095.25 50.84C1094.9 51.036 1094.63 51.33 1094.42 51.722C1094.22 52.1047 1094.12 52.576 1094.12 53.136C1094.12 53.9667 1094.33 54.6107 1094.75 55.068C1095.18 55.516 1095.71 55.74 1096.36 55.74ZM1104.74 57.126C1104.13 57.126 1103.59 57.0187 1103.1 56.804C1102.62 56.58 1102.25 56.2813 1101.97 55.908C1101.69 55.5253 1101.54 55.1007 1101.52 54.634H1103.17C1103.2 54.9607 1103.35 55.236 1103.63 55.46C1103.92 55.6747 1104.28 55.782 1104.71 55.782C1105.16 55.782 1105.5 55.698 1105.75 55.53C1106 55.3527 1106.12 55.1287 1106.12 54.858C1106.12 54.5687 1105.98 54.354 1105.7 54.214C1105.43 54.074 1105 53.92 1104.4 53.752C1103.82 53.5933 1103.35 53.4393 1102.99 53.29C1102.62 53.1407 1102.31 52.912 1102.04 52.604C1101.77 52.296 1101.64 51.89 1101.64 51.386C1101.64 50.9753 1101.77 50.602 1102.01 50.266C1102.25 49.9207 1102.6 49.65 1103.04 49.454C1103.5 49.258 1104.02 49.16 1104.61 49.16C1105.49 49.16 1106.19 49.384 1106.73 49.832C1107.27 50.2707 1107.56 50.8727 1107.59 51.638H1106C1105.97 51.2927 1105.83 51.0173 1105.58 50.812C1105.33 50.6067 1104.99 50.504 1104.56 50.504C1104.14 50.504 1103.81 50.5833 1103.59 50.742C1103.37 50.9007 1103.25 51.1107 1103.25 51.372C1103.25 51.5773 1103.33 51.75 1103.48 51.89C1103.63 52.03 1103.81 52.142 1104.02 52.226C1104.24 52.3007 1104.56 52.3987 1104.98 52.52C1105.54 52.6693 1105.99 52.8233 1106.35 52.982C1106.71 53.1313 1107.02 53.3553 1107.29 53.654C1107.55 53.9527 1107.68 54.3493 1107.69 54.844C1107.69 55.2827 1107.57 55.6747 1107.33 56.02C1107.09 56.3653 1106.74 56.636 1106.29 56.832C1105.85 57.028 1105.34 57.126 1104.74 57.126ZM1116.58 59.604C1115.67 58.7267 1114.96 57.6113 1114.47 56.258C1113.98 54.9047 1113.74 53.4533 1113.74 51.904C1113.74 50.3173 1114 48.8193 1114.52 47.41C1115.05 46.0007 1115.83 44.8387 1116.86 43.924H1118.51V44.078C1117.44 45.0673 1116.63 46.2527 1116.09 47.634C1115.55 49.0153 1115.28 50.4387 1115.28 51.904C1115.28 53.3133 1115.53 54.676 1116.03 55.992C1116.54 57.308 1117.27 58.4607 1118.23 59.45V59.604H1116.58ZM1119.73 51.764C1119.73 50.1493 1120 48.8893 1120.55 47.984C1121.1 47.0693 1122.04 46.612 1123.37 46.612C1124.71 46.612 1125.65 47.0693 1126.19 47.984C1126.74 48.8893 1127.01 50.1493 1127.01 51.764C1127.01 53.3973 1126.74 54.676 1126.19 55.6C1125.65 56.5147 1124.71 56.972 1123.37 56.972C1122.04 56.972 1121.1 56.5147 1120.55 55.6C1120 54.676 1119.73 53.3973 1119.73 51.764ZM1125.45 51.764C1125.45 51.008 1125.39 50.3687 1125.29 49.846C1125.2 49.3233 1125 48.8987 1124.7 48.572C1124.4 48.236 1123.96 48.068 1123.37 48.068C1122.79 48.068 1122.34 48.236 1122.04 48.572C1121.74 48.8987 1121.54 49.3233 1121.44 49.846C1121.35 50.3687 1121.3 51.008 1121.3 51.764C1121.3 52.548 1121.35 53.206 1121.44 53.738C1121.53 54.27 1121.73 54.6993 1122.03 55.026C1122.34 55.3527 1122.79 55.516 1123.37 55.516C1123.96 55.516 1124.4 55.3527 1124.7 55.026C1125.01 54.6993 1125.21 54.27 1125.31 53.738C1125.4 53.206 1125.45 52.548 1125.45 51.764ZM1128.52 59.604V59.45C1129.48 58.4607 1130.21 57.308 1130.72 55.992C1131.22 54.676 1131.47 53.3133 1131.47 51.904C1131.47 50.4387 1131.2 49.0153 1130.66 47.634C1130.12 46.2527 1129.31 45.0673 1128.24 44.078V43.924H1129.89C1130.92 44.8387 1131.69 46.0007 1132.22 47.41C1132.75 48.8193 1133.01 50.3173 1133.01 51.904C1133.01 53.4533 1132.77 54.9047 1132.27 56.258C1131.79 57.6113 1131.09 58.7267 1130.17 59.604H1128.52Z" fill="white"/>
<path d="M1235.29 47.75L1240.54 53M1240.54 53L1235.29 58.25M1240.54 53H1226.54M1226.54 64H1219.54C1219.27 64 1219.02 63.8946 1218.83 63.7071C1218.64 63.5196 1218.54 63.2652 1218.54 63V43C1218.54 42.7348 1218.64 42.4804 1218.83 42.2929C1219.02 42.1054 1219.27 42 1219.54 42H1226.54" stroke="white" stroke-width="2" stroke-linecap="round" stroke-linejoin="round"/>
</svg>
